<mxfile host="app.diagrams.net" modified="2022-04-03T12:47:28.761Z" agent="5.0 (Windows NT 10.0; Win64; x64) AppleWebKit/537.36 (KHTML, like Gecko) Chrome/99.0.4844.84 Safari/537.36" etag="1dKMr4lzq9u6Mv7W6jj6" version="17.4.0" type="github">
  <diagram id="DA3VW2b0f2HLIElyfkh3" name="Page-1">
    <mxGraphModel dx="782" dy="514" grid="1" gridSize="10" guides="1" tooltips="1" connect="1" arrows="1" fold="1" page="1" pageScale="1" pageWidth="827" pageHeight="1169" math="0" shadow="0">
      <root>
        <mxCell id="0" />
        <mxCell id="1" parent="0" />
        <mxCell id="M4bzleKP0RWNRsiR5dvF-50" value="" style="curved=1;endArrow=classic;html=1;rounded=0;fontSize=15;fontColor=#000000;strokeWidth=2;fillColor=#d80073;strokeColor=#A50040;entryX=0.5;entryY=0;entryDx=0;entryDy=0;exitX=0.5;exitY=1;exitDx=0;exitDy=0;" edge="1" parent="1" source="M4bzleKP0RWNRsiR5dvF-15" target="M4bzleKP0RWNRsiR5dvF-47">
          <mxGeometry width="50" height="50" relative="1" as="geometry">
            <mxPoint x="313.81999999999994" y="280" as="sourcePoint" />
            <mxPoint x="310" y="370" as="targetPoint" />
            <Array as="points">
              <mxPoint x="303.82" y="330" />
            </Array>
          </mxGeometry>
        </mxCell>
        <mxCell id="M4bzleKP0RWNRsiR5dvF-38" value="" style="curved=1;endArrow=classic;html=1;rounded=0;fontSize=15;fontColor=#000000;strokeWidth=2;fillColor=#d80073;strokeColor=#A50040;" edge="1" parent="1">
          <mxGeometry width="50" height="50" relative="1" as="geometry">
            <mxPoint x="303.82" y="270" as="sourcePoint" />
            <mxPoint x="300" y="360" as="targetPoint" />
            <Array as="points">
              <mxPoint x="293.82" y="320" />
            </Array>
          </mxGeometry>
        </mxCell>
        <mxCell id="M4bzleKP0RWNRsiR5dvF-1" value="1" style="strokeWidth=2;dashed=0;align=center;fontSize=15;shape=rect;fillColor=#d80073;strokeColor=#A50040;fontStyle=0;rounded=0;shadow=0;glass=0;sketch=0;fontColor=#ffffff;" vertex="1" parent="1">
          <mxGeometry x="310" y="155" width="22.94117647058824" height="25" as="geometry" />
        </mxCell>
        <mxCell id="M4bzleKP0RWNRsiR5dvF-3" value="2" style="strokeWidth=2;dashed=0;align=center;fontSize=15;shape=rect;fillColor=#76608a;strokeColor=#432D57;fontStyle=1;rounded=0;shadow=0;glass=0;sketch=0;fontColor=#ffffff;" vertex="1" parent="1">
          <mxGeometry x="390.00470588235294" y="155" width="22.94117647058824" height="25" as="geometry" />
        </mxCell>
        <mxCell id="M4bzleKP0RWNRsiR5dvF-4" value="3" style="strokeWidth=2;dashed=0;align=center;fontSize=15;shape=rect;fillColor=#6a00ff;strokeColor=#3700CC;fontStyle=1;rounded=0;shadow=0;glass=0;sketch=0;fontColor=#ffffff;" vertex="1" parent="1">
          <mxGeometry x="460" y="155" width="22.94117647058824" height="25" as="geometry" />
        </mxCell>
        <mxCell id="M4bzleKP0RWNRsiR5dvF-5" value="4" style="strokeWidth=2;dashed=0;align=center;fontSize=15;shape=rect;fillColor=#fa6800;strokeColor=#C73500;fontStyle=1;rounded=0;shadow=0;glass=0;sketch=0;fontColor=#FFFFFF;" vertex="1" parent="1">
          <mxGeometry x="530.0023529411765" y="155" width="22.94117647058824" height="25" as="geometry" />
        </mxCell>
        <mxCell id="M4bzleKP0RWNRsiR5dvF-7" value="" style="endArrow=classic;html=1;rounded=0;strokeWidth=2;" edge="1" parent="1">
          <mxGeometry width="50" height="50" relative="1" as="geometry">
            <mxPoint x="550" y="190" as="sourcePoint" />
            <mxPoint x="260" y="190" as="targetPoint" />
          </mxGeometry>
        </mxCell>
        <mxCell id="M4bzleKP0RWNRsiR5dvF-8" value="&lt;b&gt;&lt;font style=&quot;font-size: 14px&quot;&gt;seq1&lt;/font&gt;&lt;/b&gt;" style="text;html=1;strokeColor=none;fillColor=none;align=center;verticalAlign=middle;whiteSpace=wrap;rounded=0;shadow=0;glass=0;sketch=0;" vertex="1" parent="1">
          <mxGeometry x="240.00000000000003" y="152.5" width="60" height="30" as="geometry" />
        </mxCell>
        <mxCell id="M4bzleKP0RWNRsiR5dvF-9" value="&lt;b&gt;&lt;font style=&quot;font-size: 13px&quot;&gt;map(map(pro&amp;nbsp; seq2) seq1)&lt;/font&gt;&lt;/b&gt;" style="text;html=1;strokeColor=none;fillColor=none;align=center;verticalAlign=middle;whiteSpace=wrap;rounded=0;shadow=0;glass=0;sketch=0;" vertex="1" parent="1">
          <mxGeometry x="310" y="190" width="208.24" height="30" as="geometry" />
        </mxCell>
        <mxCell id="M4bzleKP0RWNRsiR5dvF-27" value="" style="group" vertex="1" connectable="0" parent="1">
          <mxGeometry x="288.82" y="250" width="60" height="20" as="geometry" />
        </mxCell>
        <mxCell id="M4bzleKP0RWNRsiR5dvF-10" value="" style="strokeWidth=2;dashed=0;align=center;fontSize=8;shape=rect;fillColor=#d80073;strokeColor=#A50040;fontStyle=1;rounded=1;shadow=0;glass=0;sketch=1;perimeterSpacing=0;gradientDirection=south;fontColor=#ffffff;" vertex="1" parent="M4bzleKP0RWNRsiR5dvF-27">
          <mxGeometry width="20" height="20" as="geometry" />
        </mxCell>
        <mxCell id="M4bzleKP0RWNRsiR5dvF-15" value="" style="strokeWidth=2;dashed=0;align=center;fontSize=8;shape=rect;fillColor=#d80073;strokeColor=#A50040;fontStyle=1;rounded=1;shadow=0;glass=0;sketch=1;perimeterSpacing=0;gradientDirection=south;fontColor=#ffffff;" vertex="1" parent="M4bzleKP0RWNRsiR5dvF-27">
          <mxGeometry x="20" width="20" height="20" as="geometry" />
        </mxCell>
        <mxCell id="M4bzleKP0RWNRsiR5dvF-16" value="" style="strokeWidth=2;dashed=0;align=center;fontSize=8;shape=rect;fillColor=#d80073;strokeColor=#A50040;fontStyle=1;rounded=1;shadow=0;glass=0;sketch=1;perimeterSpacing=0;gradientDirection=south;fontColor=#ffffff;" vertex="1" parent="M4bzleKP0RWNRsiR5dvF-27">
          <mxGeometry x="40" width="20" height="20" as="geometry" />
        </mxCell>
        <mxCell id="M4bzleKP0RWNRsiR5dvF-28" value="" style="group" vertex="1" connectable="0" parent="1">
          <mxGeometry x="380" y="250" width="60" height="20" as="geometry" />
        </mxCell>
        <mxCell id="M4bzleKP0RWNRsiR5dvF-17" value="2" style="strokeWidth=2;dashed=0;align=center;fontSize=15;shape=rect;fillColor=#76608a;strokeColor=#432D57;fontStyle=1;rounded=0;shadow=0;glass=0;sketch=1;fontColor=#ffffff;" vertex="1" parent="M4bzleKP0RWNRsiR5dvF-28">
          <mxGeometry width="20" height="20" as="geometry" />
        </mxCell>
        <mxCell id="M4bzleKP0RWNRsiR5dvF-18" value="2" style="strokeWidth=2;dashed=0;align=center;fontSize=15;shape=rect;fillColor=#76608a;strokeColor=#432D57;fontStyle=1;rounded=0;shadow=0;glass=0;sketch=1;fontColor=#ffffff;" vertex="1" parent="M4bzleKP0RWNRsiR5dvF-28">
          <mxGeometry x="20" width="20" height="20" as="geometry" />
        </mxCell>
        <mxCell id="M4bzleKP0RWNRsiR5dvF-19" value="2" style="strokeWidth=2;dashed=0;align=center;fontSize=15;shape=rect;fillColor=#76608a;strokeColor=#432D57;fontStyle=1;rounded=0;shadow=0;glass=0;sketch=1;fontColor=#ffffff;" vertex="1" parent="M4bzleKP0RWNRsiR5dvF-28">
          <mxGeometry x="40" width="20" height="20" as="geometry" />
        </mxCell>
        <mxCell id="M4bzleKP0RWNRsiR5dvF-30" value="" style="curved=1;endArrow=classic;html=1;rounded=0;fontSize=13;fontColor=#FFFFFF;fillColor=#d80073;strokeColor=#A50040;strokeWidth=2;" edge="1" parent="1">
          <mxGeometry width="50" height="50" relative="1" as="geometry">
            <mxPoint x="320" y="182.5" as="sourcePoint" />
            <mxPoint x="300" y="240" as="targetPoint" />
            <Array as="points">
              <mxPoint x="320" y="222.5" />
              <mxPoint x="280" y="202.5" />
            </Array>
          </mxGeometry>
        </mxCell>
        <mxCell id="M4bzleKP0RWNRsiR5dvF-49" value="" style="group" vertex="1" connectable="0" parent="1">
          <mxGeometry x="286.77" y="360" width="85" height="30" as="geometry" />
        </mxCell>
        <mxCell id="M4bzleKP0RWNRsiR5dvF-45" value="" style="rhombus;whiteSpace=wrap;html=1;fontSize=8;fillColor=#d80073;strokeColor=#A50040;fontColor=#ffffff;strokeWidth=2;dashed=0;fontStyle=1;rounded=1;shadow=0;glass=0;sketch=1;gradientDirection=south;arcSize=27;" vertex="1" parent="M4bzleKP0RWNRsiR5dvF-49">
          <mxGeometry width="25" height="25" as="geometry" />
        </mxCell>
        <mxCell id="M4bzleKP0RWNRsiR5dvF-47" value="" style="rhombus;whiteSpace=wrap;html=1;fontSize=8;fillColor=#d80073;strokeColor=#A50040;fontColor=#ffffff;strokeWidth=2;dashed=0;fontStyle=1;rounded=1;shadow=0;glass=0;sketch=1;gradientDirection=south;arcSize=27;" vertex="1" parent="M4bzleKP0RWNRsiR5dvF-49">
          <mxGeometry x="19.550000000000008" width="25" height="25" as="geometry" />
        </mxCell>
        <mxCell id="M4bzleKP0RWNRsiR5dvF-48" value="" style="rhombus;whiteSpace=wrap;html=1;fontSize=8;fillColor=#d80073;strokeColor=#A50040;fontColor=#ffffff;strokeWidth=2;dashed=0;fontStyle=1;rounded=1;shadow=0;glass=0;sketch=1;gradientDirection=south;arcSize=27;" vertex="1" parent="M4bzleKP0RWNRsiR5dvF-49">
          <mxGeometry x="44.55" width="25" height="25" as="geometry" />
        </mxCell>
        <mxCell id="M4bzleKP0RWNRsiR5dvF-51" value="" style="group" vertex="1" connectable="0" parent="1">
          <mxGeometry x="250" y="290" width="110" height="30" as="geometry" />
        </mxCell>
        <mxCell id="M4bzleKP0RWNRsiR5dvF-52" value="" style="curved=1;endArrow=classic;html=1;rounded=0;fontSize=15;fontColor=#000000;strokeWidth=2;fillColor=#d80073;strokeColor=#A50040;exitX=0.5;exitY=1;exitDx=0;exitDy=0;" edge="1" parent="M4bzleKP0RWNRsiR5dvF-51">
          <mxGeometry width="50" height="50" relative="1" as="geometry">
            <mxPoint x="93.81999999999994" y="-20" as="sourcePoint" />
            <mxPoint x="94" y="70" as="targetPoint" />
            <Array as="points">
              <mxPoint x="78.82" y="40" />
            </Array>
          </mxGeometry>
        </mxCell>
        <mxCell id="M4bzleKP0RWNRsiR5dvF-35" value="" style="rounded=0;whiteSpace=wrap;html=1;shadow=0;sketch=1;fontSize=15;fontColor=#000000;strokeWidth=2;gradientColor=#ffffff;gradientDirection=south;" vertex="1" parent="M4bzleKP0RWNRsiR5dvF-51">
          <mxGeometry x="10" width="100" height="30" as="geometry" />
        </mxCell>
        <mxCell id="M4bzleKP0RWNRsiR5dvF-31" value="&lt;b&gt;&lt;font color=&quot;#000000&quot; style=&quot;font-size: 15px&quot;&gt;pro&lt;/font&gt;&lt;/b&gt;" style="text;html=1;strokeColor=none;fillColor=none;align=center;verticalAlign=middle;whiteSpace=wrap;rounded=0;shadow=0;sketch=1;fontSize=13;fontColor=#FFFFFF;" vertex="1" parent="M4bzleKP0RWNRsiR5dvF-51">
          <mxGeometry width="60" height="30" as="geometry" />
        </mxCell>
        <mxCell id="M4bzleKP0RWNRsiR5dvF-32" value="1" style="strokeWidth=2;dashed=0;align=center;fontSize=15;shape=rect;fillColor=#d80073;strokeColor=#A50040;fontStyle=0;rounded=0;shadow=0;glass=0;sketch=0;fontColor=#ffffff;" vertex="1" parent="M4bzleKP0RWNRsiR5dvF-51">
          <mxGeometry x="48.52999999999997" y="5" width="20" height="20" as="geometry" />
        </mxCell>
        <mxCell id="M4bzleKP0RWNRsiR5dvF-33" value="" style="strokeWidth=2;dashed=0;align=center;fontSize=8;shape=rect;fillColor=#d80073;strokeColor=#A50040;fontStyle=1;rounded=1;shadow=0;glass=0;sketch=1;perimeterSpacing=0;gradientDirection=south;fontColor=#ffffff;" vertex="1" parent="M4bzleKP0RWNRsiR5dvF-51">
          <mxGeometry x="78.82" y="5" width="20" height="20" as="geometry" />
        </mxCell>
        <mxCell id="M4bzleKP0RWNRsiR5dvF-53" value="&lt;b&gt;&lt;font style=&quot;font-size: 13px&quot;&gt;seq2&lt;/font&gt;&lt;/b&gt;" style="text;html=1;strokeColor=none;fillColor=none;align=center;verticalAlign=middle;whiteSpace=wrap;rounded=0;shadow=0;sketch=1;fontSize=15;fontColor=#000000;" vertex="1" parent="1">
          <mxGeometry x="228.82" y="245" width="60" height="30" as="geometry" />
        </mxCell>
        <mxCell id="M4bzleKP0RWNRsiR5dvF-54" value="" style="endArrow=classic;html=1;rounded=0;strokeWidth=2;" edge="1" parent="1">
          <mxGeometry width="50" height="50" relative="1" as="geometry">
            <mxPoint x="546.48" y="410" as="sourcePoint" />
            <mxPoint x="256.48" y="410" as="targetPoint" />
          </mxGeometry>
        </mxCell>
        <mxCell id="M4bzleKP0RWNRsiR5dvF-55" value="" style="rhombus;whiteSpace=wrap;html=1;fontSize=8;fillColor=#76608a;strokeColor=#76608A;fontColor=#ffffff;strokeWidth=2;dashed=0;fontStyle=1;rounded=1;shadow=0;glass=0;sketch=1;gradientDirection=south;arcSize=27;" vertex="1" parent="1">
          <mxGeometry x="380" y="360" width="25" height="25" as="geometry" />
        </mxCell>
        <mxCell id="M4bzleKP0RWNRsiR5dvF-60" value="" style="rhombus;whiteSpace=wrap;html=1;fontSize=8;fillColor=#76608a;strokeColor=#76608A;fontColor=#ffffff;strokeWidth=2;dashed=0;fontStyle=1;rounded=1;shadow=0;glass=0;sketch=1;gradientDirection=south;arcSize=27;" vertex="1" parent="1">
          <mxGeometry x="403" y="360" width="25" height="25" as="geometry" />
        </mxCell>
        <mxCell id="M4bzleKP0RWNRsiR5dvF-62" value="" style="rhombus;whiteSpace=wrap;html=1;fontSize=8;fillColor=#76608a;strokeColor=#76608A;fontColor=#ffffff;strokeWidth=2;dashed=0;fontStyle=1;rounded=1;shadow=0;glass=0;sketch=1;gradientDirection=south;arcSize=27;" vertex="1" parent="1">
          <mxGeometry x="426" y="360" width="25" height="25" as="geometry" />
        </mxCell>
        <mxCell id="M4bzleKP0RWNRsiR5dvF-63" value="&lt;b&gt;list1&lt;/b&gt;" style="text;html=1;strokeColor=none;fillColor=none;align=center;verticalAlign=middle;whiteSpace=wrap;rounded=0;shadow=0;sketch=1;fontSize=13;fontColor=#000000;" vertex="1" parent="1">
          <mxGeometry x="291.47" y="385" width="60" height="30" as="geometry" />
        </mxCell>
        <mxCell id="M4bzleKP0RWNRsiR5dvF-64" value="&lt;b&gt;list2&lt;/b&gt;" style="text;html=1;strokeColor=none;fillColor=none;align=center;verticalAlign=middle;whiteSpace=wrap;rounded=0;shadow=0;sketch=1;fontSize=13;fontColor=#000000;" vertex="1" parent="1">
          <mxGeometry x="385.5" y="385" width="60" height="30" as="geometry" />
        </mxCell>
        <mxCell id="M4bzleKP0RWNRsiR5dvF-65" value="&lt;b&gt;......&lt;/b&gt;" style="text;html=1;strokeColor=none;fillColor=none;align=center;verticalAlign=middle;whiteSpace=wrap;rounded=0;shadow=0;sketch=1;fontSize=13;fontColor=#000000;" vertex="1" parent="1">
          <mxGeometry x="445.5" y="290" width="60" height="30" as="geometry" />
        </mxCell>
        <mxCell id="M4bzleKP0RWNRsiR5dvF-66" value="" style="curved=1;endArrow=classic;html=1;rounded=0;fontSize=15;fontColor=#000000;strokeWidth=2;fillColor=#d80073;strokeColor=#76608A;" edge="1" parent="1">
          <mxGeometry width="50" height="50" relative="1" as="geometry">
            <mxPoint x="402.95" y="270" as="sourcePoint" />
            <mxPoint x="412.95" y="360" as="targetPoint" />
            <Array as="points">
              <mxPoint x="402.95" y="340" />
            </Array>
          </mxGeometry>
        </mxCell>
        <mxCell id="M4bzleKP0RWNRsiR5dvF-67" value="&lt;b&gt;......&lt;/b&gt;" style="text;html=1;strokeColor=none;fillColor=none;align=center;verticalAlign=middle;whiteSpace=wrap;rounded=0;shadow=0;sketch=1;fontSize=13;fontColor=#000000;" vertex="1" parent="1">
          <mxGeometry x="482.94" y="355" width="60" height="30" as="geometry" />
        </mxCell>
        <mxCell id="M4bzleKP0RWNRsiR5dvF-71" value="&lt;div style=&quot;color: rgb(212 , 212 , 212) ; background-color: rgb(30 , 30 , 30) ; font-family: &amp;#34;consolas&amp;#34; , &amp;#34;courier new&amp;#34; , monospace ; font-size: 14px ; line-height: 19px&quot;&gt;&lt;br&gt;&lt;/div&gt;" style="text;html=1;strokeColor=none;fillColor=none;align=center;verticalAlign=middle;whiteSpace=wrap;rounded=0;shadow=0;sketch=1;fontSize=13;fontColor=#000000;" vertex="1" parent="1">
          <mxGeometry x="150" y="360" width="60" height="30" as="geometry" />
        </mxCell>
        <mxCell id="M4bzleKP0RWNRsiR5dvF-82" value="" style="edgeStyle=orthogonalEdgeStyle;rounded=0;orthogonalLoop=1;jettySize=auto;html=1;fontSize=13;fontColor=#000000;endArrow=none;endFill=0;strokeColor=#76608A;strokeWidth=2;" edge="1" parent="1" source="M4bzleKP0RWNRsiR5dvF-72" target="M4bzleKP0RWNRsiR5dvF-81">
          <mxGeometry relative="1" as="geometry" />
        </mxCell>
        <mxCell id="M4bzleKP0RWNRsiR5dvF-72" value="&lt;b&gt;append&lt;/b&gt;" style="text;html=1;strokeColor=none;fillColor=none;align=center;verticalAlign=middle;whiteSpace=wrap;rounded=0;shadow=0;sketch=1;fontSize=13;fontColor=#000000;" vertex="1" parent="1">
          <mxGeometry x="325.5" y="415" width="60" height="30" as="geometry" />
        </mxCell>
        <mxCell id="M4bzleKP0RWNRsiR5dvF-79" value="" style="shape=curlyBracket;whiteSpace=wrap;html=1;rounded=1;shadow=0;sketch=1;fontSize=13;fontColor=#000000;strokeColor=#76608A;strokeWidth=1;fillColor=#76608a;gradientColor=#ffffff;gradientDirection=south;" vertex="1" parent="1">
          <mxGeometry x="208.82" y="240" width="20" height="150" as="geometry" />
        </mxCell>
        <mxCell id="M4bzleKP0RWNRsiR5dvF-80" value="" style="endArrow=classicThin;html=1;rounded=0;fontSize=13;fontColor=#000000;strokeColor=#76608A;strokeWidth=2;endFill=1;" edge="1" parent="1">
          <mxGeometry width="50" height="50" relative="1" as="geometry">
            <mxPoint x="384" y="429.5" as="sourcePoint" />
            <mxPoint x="420" y="430" as="targetPoint" />
          </mxGeometry>
        </mxCell>
        <mxCell id="M4bzleKP0RWNRsiR5dvF-81" value="&lt;b&gt;result&lt;/b&gt;" style="text;html=1;strokeColor=none;fillColor=none;align=center;verticalAlign=middle;whiteSpace=wrap;rounded=0;shadow=0;sketch=1;fontSize=13;fontColor=#000000;" vertex="1" parent="1">
          <mxGeometry x="422.94" y="415" width="60" height="30" as="geometry" />
        </mxCell>
        <mxCell id="M4bzleKP0RWNRsiR5dvF-83" value="" style="shape=curlyBracket;whiteSpace=wrap;html=1;rounded=1;shadow=0;sketch=1;fontSize=13;fontColor=#000000;strokeColor=#76608A;strokeWidth=1;fillColor=#76608a;gradientColor=#ffffff;gradientDirection=south;" vertex="1" parent="1">
          <mxGeometry x="170" y="170" width="20" height="220" as="geometry" />
        </mxCell>
        <mxCell id="M4bzleKP0RWNRsiR5dvF-84" value="&lt;b&gt;&lt;font style=&quot;font-size: 12px&quot;&gt;map&lt;/font&gt;&lt;/b&gt;" style="text;html=1;strokeColor=none;fillColor=none;align=center;verticalAlign=middle;whiteSpace=wrap;rounded=0;shadow=0;sketch=1;fontSize=13;fontColor=#000000;" vertex="1" parent="1">
          <mxGeometry x="168.82" y="290" width="60" height="30" as="geometry" />
        </mxCell>
        <mxCell id="M4bzleKP0RWNRsiR5dvF-85" value="&lt;b&gt;&lt;font style=&quot;font-size: 12px&quot;&gt;map&lt;/font&gt;&lt;/b&gt;" style="text;html=1;strokeColor=none;fillColor=none;align=center;verticalAlign=middle;whiteSpace=wrap;rounded=0;shadow=0;sketch=1;fontSize=13;fontColor=#000000;" vertex="1" parent="1">
          <mxGeometry x="120" y="265" width="60" height="30" as="geometry" />
        </mxCell>
      </root>
    </mxGraphModel>
  </diagram>
</mxfile>
